<mxfile host="www.draw.io" modified="2019-12-09T06:04:14.228Z" agent="Mozilla/5.0 (X11; Linux x86_64) AppleWebKit/537.36 (KHTML, like Gecko) Chrome/78.0.3904.70 Safari/537.36" etag="euLUQF4QEwg_lgX2_v9x" version="12.3.8" type="github" pages="1">
  <diagram id="awjlPtBp8_mDKeiI9_V6" name="Page-1">
    <mxGraphModel dx="1408" dy="792" grid="1" gridSize="10" guides="1" tooltips="1" connect="1" arrows="1" fold="1" page="1" pageScale="1" pageWidth="850" pageHeight="1100" math="0" shadow="0">
      <root>
        <mxCell id="0"/>
        <mxCell id="1" parent="0"/>
        <mxCell id="8XlGdY5N6A-Fkyj69090-2" value="" style="shape=umlLifeline;participant=umlActor;perimeter=lifelinePerimeter;whiteSpace=wrap;html=1;container=1;collapsible=0;recursiveResize=0;verticalAlign=top;spacingTop=36;labelBackgroundColor=#ffffff;outlineConnect=0;" vertex="1" parent="1">
          <mxGeometry x="120" y="90" width="20" height="470" as="geometry"/>
        </mxCell>
        <mxCell id="8XlGdY5N6A-Fkyj69090-6" value="" style="html=1;points=[];perimeter=orthogonalPerimeter;" vertex="1" parent="8XlGdY5N6A-Fkyj69090-2">
          <mxGeometry x="5" y="60" width="10" height="80" as="geometry"/>
        </mxCell>
        <mxCell id="8XlGdY5N6A-Fkyj69090-3" value="requests to see all instructors" style="endArrow=block;endFill=1;html=1;edgeStyle=orthogonalEdgeStyle;align=left;verticalAlign=top;" edge="1" parent="1">
          <mxGeometry x="-1" relative="1" as="geometry">
            <mxPoint x="140" y="160" as="sourcePoint"/>
            <mxPoint x="300" y="160" as="targetPoint"/>
          </mxGeometry>
        </mxCell>
        <mxCell id="8XlGdY5N6A-Fkyj69090-4" value="1" style="resizable=0;html=1;align=left;verticalAlign=bottom;labelBackgroundColor=#ffffff;fontSize=10;" connectable="0" vertex="1" parent="8XlGdY5N6A-Fkyj69090-3">
          <mxGeometry x="-1" relative="1" as="geometry"/>
        </mxCell>
        <mxCell id="8XlGdY5N6A-Fkyj69090-5" value="" style="html=1;points=[];perimeter=orthogonalPerimeter;" vertex="1" parent="1">
          <mxGeometry x="300" y="150" width="10" height="80" as="geometry"/>
        </mxCell>
        <mxCell id="8XlGdY5N6A-Fkyj69090-7" value="" style="html=1;points=[];perimeter=orthogonalPerimeter;" vertex="1" parent="1">
          <mxGeometry x="125" y="280" width="10" height="80" as="geometry"/>
        </mxCell>
        <mxCell id="8XlGdY5N6A-Fkyj69090-8" value="" style="html=1;points=[];perimeter=orthogonalPerimeter;" vertex="1" parent="1">
          <mxGeometry x="300" y="280" width="10" height="80" as="geometry"/>
        </mxCell>
        <mxCell id="8XlGdY5N6A-Fkyj69090-9" value="" style="endArrow=block;dashed=1;endFill=0;endSize=12;html=1;entryX=1.2;entryY=0.75;entryDx=0;entryDy=0;entryPerimeter=0;" edge="1" parent="1" target="8XlGdY5N6A-Fkyj69090-6">
          <mxGeometry width="160" relative="1" as="geometry">
            <mxPoint x="185" y="210" as="sourcePoint"/>
            <mxPoint x="95" y="210" as="targetPoint"/>
            <Array as="points">
              <mxPoint x="305" y="210"/>
              <mxPoint x="225" y="210"/>
            </Array>
          </mxGeometry>
        </mxCell>
        <mxCell id="8XlGdY5N6A-Fkyj69090-10" value="return list of all coaches" style="text;strokeColor=none;fillColor=none;align=left;verticalAlign=top;spacingLeft=4;spacingRight=4;overflow=hidden;rotatable=0;points=[[0,0.5],[1,0.5]];portConstraint=eastwest;" vertex="1" parent="1">
          <mxGeometry x="160" y="190" width="130" height="26" as="geometry"/>
        </mxCell>
        <mxCell id="8XlGdY5N6A-Fkyj69090-11" value="name" style="endArrow=block;endFill=1;html=1;edgeStyle=orthogonalEdgeStyle;align=left;verticalAlign=top;entryX=-0.3;entryY=0.113;entryDx=0;entryDy=0;entryPerimeter=0;" edge="1" parent="1" target="8XlGdY5N6A-Fkyj69090-8">
          <mxGeometry x="-1" relative="1" as="geometry">
            <mxPoint x="130" y="290" as="sourcePoint"/>
            <mxPoint x="290" y="290" as="targetPoint"/>
            <Array as="points">
              <mxPoint x="130" y="289"/>
            </Array>
          </mxGeometry>
        </mxCell>
        <mxCell id="8XlGdY5N6A-Fkyj69090-12" value="1" style="resizable=0;html=1;align=left;verticalAlign=bottom;labelBackgroundColor=#ffffff;fontSize=10;" connectable="0" vertex="1" parent="8XlGdY5N6A-Fkyj69090-11">
          <mxGeometry x="-1" relative="1" as="geometry"/>
        </mxCell>
        <mxCell id="8XlGdY5N6A-Fkyj69090-13" value="&amp;lt;&amp;lt;SYSTEM&amp;gt;&amp;gt;" style="shape=umlLifeline;perimeter=lifelinePerimeter;whiteSpace=wrap;html=1;container=1;collapsible=0;recursiveResize=0;outlineConnect=0;" vertex="1" parent="1">
          <mxGeometry x="255" y="90" width="100" height="470" as="geometry"/>
        </mxCell>
        <mxCell id="8XlGdY5N6A-Fkyj69090-14" value="Coach" style="shape=umlLifeline;perimeter=lifelinePerimeter;whiteSpace=wrap;html=1;container=1;collapsible=0;recursiveResize=0;outlineConnect=0;" vertex="1" parent="1">
          <mxGeometry x="425" y="90" width="100" height="470" as="geometry"/>
        </mxCell>
        <mxCell id="8XlGdY5N6A-Fkyj69090-15" value="" style="endArrow=block;endFill=1;html=1;edgeStyle=orthogonalEdgeStyle;align=left;verticalAlign=top;" edge="1" parent="1">
          <mxGeometry x="-1" relative="1" as="geometry">
            <mxPoint x="315" y="160" as="sourcePoint"/>
            <mxPoint x="475" y="160" as="targetPoint"/>
          </mxGeometry>
        </mxCell>
        <mxCell id="8XlGdY5N6A-Fkyj69090-16" value="1" style="resizable=0;html=1;align=left;verticalAlign=bottom;labelBackgroundColor=#ffffff;fontSize=10;" connectable="0" vertex="1" parent="8XlGdY5N6A-Fkyj69090-15">
          <mxGeometry x="-1" relative="1" as="geometry"/>
        </mxCell>
        <mxCell id="8XlGdY5N6A-Fkyj69090-19" value="Use" style="endArrow=open;endSize=12;dashed=1;html=1;" edge="1" parent="1" source="8XlGdY5N6A-Fkyj69090-14">
          <mxGeometry width="160" relative="1" as="geometry">
            <mxPoint x="435" y="210" as="sourcePoint"/>
            <mxPoint x="305" y="210" as="targetPoint"/>
          </mxGeometry>
        </mxCell>
      </root>
    </mxGraphModel>
  </diagram>
</mxfile>
